<svg width="636" height="622" viewBox="0 0 636 622" fill="none" xmlns="http://www.w3.org/2000/svg" style="">
<path width="325.754" height="559.785" fill="#FF3F81" d="M 246.209,0 L 539.963,0 A 16,16,0,0,1,555.963,16 L 555.963,543.785 A 16,16,0,0,1,539.963,559.785 L 246.209,559.785 A 16,16,0,0,1,230.209,543.785 L 230.209,16 A 16,16,0,0,1,246.209,0" class="uUegsFFJ_0"></path>
<g style="mix-blend-mode:darken">
<path width="330.754" height="564.785" fill="#93D6FC" d="M 320.378,53.7798 L 615.1320000000001,53.7798 A 18,18,0,0,1,633.1320000000001,71.7798 L 633.1320000000001,600.5648 A 18,18,0,0,1,615.1320000000001,618.5648 L 320.378,618.5648 A 18,18,0,0,1,302.378,600.5648 L 302.378,71.7798 A 18,18,0,0,1,320.378,53.7798" class="uUegsFFJ_1"></path>
<path width="330.754" height="564.785" stroke="#071A52" stroke-width="5" d="M 320.378,53.7798 L 615.1320000000001,53.7798 A 18,18,0,0,1,633.1320000000001,71.7798 L 633.1320000000001,600.5648 A 18,18,0,0,1,615.1320000000001,618.5648 L 320.378,618.5648 A 18,18,0,0,1,302.378,600.5648 L 302.378,71.7798 A 18,18,0,0,1,320.378,53.7798" class="uUegsFFJ_2"></path>
</g>
<path width="330.754" height="564.785" stroke="#071A52" stroke-width="5" d="M 286.576,37.1279 L 581.33,37.1279 A 18,18,0,0,1,599.33,55.1279 L 599.33,583.9128999999999 A 18,18,0,0,1,581.33,601.9128999999999 L 286.576,601.9128999999999 A 18,18,0,0,1,268.576,583.9128999999999 L 268.576,55.1279 A 18,18,0,0,1,286.576,37.1279" class="uUegsFFJ_3"></path>
<path width="208.703" height="12.9631" fill="#071A52" d="M 333.569,96.2969 L 530.272,96.2969 A 6,6,0,0,1,536.272,102.2969 L 536.272,103.25999999999999 A 6,6,0,0,1,530.272,109.25999999999999 L 333.569,109.25999999999999 A 6,6,0,0,1,327.569,103.25999999999999 L 327.569,102.2969 A 6,6,0,0,1,333.569,96.2969" class="uUegsFFJ_4"></path>
<path width="208.703" height="12.9631" fill="#071A52" d="M 333.569,125.164 L 530.272,125.164 A 6,6,0,0,1,536.272,131.164 L 536.272,132.1271 A 6,6,0,0,1,530.272,138.1271 L 333.569,138.1271 A 6,6,0,0,1,327.569,132.1271 L 327.569,131.164 A 6,6,0,0,1,333.569,125.164" class="uUegsFFJ_5"></path>
<path width="208.703" height="12.9631" fill="#071A52" d="M 333.514,193.71 L 530.217,193.71 A 6,6,0,0,1,536.217,199.71 L 536.217,200.6731 A 6,6,0,0,1,530.217,206.6731 L 333.514,206.6731 A 6,6,0,0,1,327.514,200.6731 L 327.514,199.71 A 6,6,0,0,1,333.514,193.71" class="uUegsFFJ_6"></path>
<path width="208.703" height="12.9631" fill="#071A52" d="M 335.601,395.609 L 532.304,395.609 A 6,6,0,0,1,538.304,401.609 L 538.304,402.5721 A 6,6,0,0,1,532.304,408.5721 L 335.601,408.5721 A 6,6,0,0,1,329.601,402.5721 L 329.601,401.609 A 6,6,0,0,1,335.601,395.609" class="uUegsFFJ_7"></path>
<path width="208.703" height="12.9631" fill="#071A52" d="M 333.514,219.66 L 530.217,219.66 A 6,6,0,0,1,536.217,225.66 L 536.217,226.6231 A 6,6,0,0,1,530.217,232.6231 L 333.514,232.6231 A 6,6,0,0,1,327.514,226.6231 L 327.514,225.66 A 6,6,0,0,1,333.514,219.66" class="uUegsFFJ_8"></path>
<path width="208.703" height="12.9631" fill="#071A52" d="M 333.514,424.477 L 530.217,424.477 A 6,6,0,0,1,536.217,430.477 L 536.217,431.4401 A 6,6,0,0,1,530.217,437.4401 L 333.514,437.4401 A 6,6,0,0,1,327.514,431.4401 L 327.514,430.477 A 6,6,0,0,1,333.514,424.477" class="uUegsFFJ_9"></path>
<path width="202.703" height="42.2795" stroke="#071A52" stroke-width="6" d="M 351.514,496.236 L 512.217,496.236 A 21,21,0,0,1,533.217,517.236 L 533.217,517.5155 A 21,21,0,0,1,512.217,538.5155 L 351.514,538.5155 A 21,21,0,0,1,330.514,517.5155 L 330.514,517.236 A 21,21,0,0,1,351.514,496.236" class="uUegsFFJ_10"></path>
<path width="137.526" height="12.9631" fill="#071A52" d="M 333.569,154.031 L 459.095,154.031 A 6,6,0,0,1,465.095,160.031 L 465.095,160.9941 A 6,6,0,0,1,459.095,166.9941 L 333.569,166.9941 A 6,6,0,0,1,327.569,160.9941 L 327.569,160.031 A 6,6,0,0,1,333.569,154.031" class="uUegsFFJ_11"></path>
<path width="137.526" height="12.9631" fill="#071A52" d="M 333.569,453.557 L 459.095,453.557 A 6,6,0,0,1,465.095,459.557 L 465.095,460.5201 A 6,6,0,0,1,459.095,466.5201 L 333.569,466.5201 A 6,6,0,0,1,327.569,460.5201 L 327.569,459.557 A 6,6,0,0,1,333.569,453.557" class="uUegsFFJ_12"></path>
<path width="202.648" height="103.554" stroke="#071A52" stroke-width="6" d="M 339.514,262.339 L 524.162,262.339 A 9,9,0,0,1,533.162,271.339 L 533.162,356.89300000000003 A 9,9,0,0,1,524.162,365.89300000000003 L 339.514,365.89300000000003 A 9,9,0,0,1,330.514,356.89300000000003 L 330.514,271.339 A 9,9,0,0,1,339.514,262.339" class="uUegsFFJ_13"></path>
<path d="M22.9824 289.608L43.4084 269.182" stroke="#D8D8D8" stroke-width="7" stroke-linecap="round" class="uUegsFFJ_14"></path>
<path d="M31.8862 298.511L52.3123 278.085" stroke="#D8D8D8" stroke-width="7" stroke-linecap="round" class="uUegsFFJ_15"></path>
<path d="M144.491 411.117L164.917 390.691" stroke="#D8D8D8" stroke-width="7" stroke-linecap="round" class="uUegsFFJ_16"></path>
<path d="M185.292 373.988L185.292 417.231L144.752 414.528L21.7793 291.556C13.6713 285.25 1.77955 268.313 19.0768 251.015C36.3741 233.718 55.1126 243.808 62.3198 251.015L185.292 373.988Z" stroke="#D8D8D8" stroke-width="7" class="uUegsFFJ_17"></path>
<style data-made-with="vivus-instant">.uUegsFFJ_0{stroke-dasharray:1744 1746;stroke-dashoffset:1745;animation:uUegsFFJ_draw_0 3600ms linear 0ms infinite,uUegsFFJ_fade 3600ms linear 0ms infinite;}.uUegsFFJ_1{stroke-dasharray:1761 1763;stroke-dashoffset:1762;animation:uUegsFFJ_draw_1 3600ms linear 0ms infinite,uUegsFFJ_fade 3600ms linear 0ms infinite;}.uUegsFFJ_2{stroke-dasharray:1761 1763;stroke-dashoffset:1762;animation:uUegsFFJ_draw_2 3600ms linear 0ms infinite,uUegsFFJ_fade 3600ms linear 0ms infinite;}.uUegsFFJ_3{stroke-dasharray:1761 1763;stroke-dashoffset:1762;animation:uUegsFFJ_draw_3 3600ms linear 0ms infinite,uUegsFFJ_fade 3600ms linear 0ms infinite;}.uUegsFFJ_4{stroke-dasharray:434 436;stroke-dashoffset:435;animation:uUegsFFJ_draw_4 3600ms linear 0ms infinite,uUegsFFJ_fade 3600ms linear 0ms infinite;}.uUegsFFJ_5{stroke-dasharray:434 436;stroke-dashoffset:435;animation:uUegsFFJ_draw_5 3600ms linear 0ms infinite,uUegsFFJ_fade 3600ms linear 0ms infinite;}.uUegsFFJ_6{stroke-dasharray:434 436;stroke-dashoffset:435;animation:uUegsFFJ_draw_6 3600ms linear 0ms infinite,uUegsFFJ_fade 3600ms linear 0ms infinite;}.uUegsFFJ_7{stroke-dasharray:434 436;stroke-dashoffset:435;animation:uUegsFFJ_draw_7 3600ms linear 0ms infinite,uUegsFFJ_fade 3600ms linear 0ms infinite;}.uUegsFFJ_8{stroke-dasharray:434 436;stroke-dashoffset:435;animation:uUegsFFJ_draw_8 3600ms linear 0ms infinite,uUegsFFJ_fade 3600ms linear 0ms infinite;}.uUegsFFJ_9{stroke-dasharray:434 436;stroke-dashoffset:435;animation:uUegsFFJ_draw_9 3600ms linear 0ms infinite,uUegsFFJ_fade 3600ms linear 0ms infinite;}.uUegsFFJ_10{stroke-dasharray:454 456;stroke-dashoffset:455;animation:uUegsFFJ_draw_10 3600ms linear 0ms infinite,uUegsFFJ_fade 3600ms linear 0ms infinite;}.uUegsFFJ_11{stroke-dasharray:291 293;stroke-dashoffset:292;animation:uUegsFFJ_draw_11 3600ms linear 0ms infinite,uUegsFFJ_fade 3600ms linear 0ms infinite;}.uUegsFFJ_12{stroke-dasharray:291 293;stroke-dashoffset:292;animation:uUegsFFJ_draw_12 3600ms linear 0ms infinite,uUegsFFJ_fade 3600ms linear 0ms infinite;}.uUegsFFJ_13{stroke-dasharray:597 599;stroke-dashoffset:598;animation:uUegsFFJ_draw_13 3600ms linear 0ms infinite,uUegsFFJ_fade 3600ms linear 0ms infinite;}.uUegsFFJ_14{stroke-dasharray:29 31;stroke-dashoffset:30;animation:uUegsFFJ_draw_14 3600ms linear 0ms infinite,uUegsFFJ_fade 3600ms linear 0ms infinite;}.uUegsFFJ_15{stroke-dasharray:29 31;stroke-dashoffset:30;animation:uUegsFFJ_draw_15 3600ms linear 0ms infinite,uUegsFFJ_fade 3600ms linear 0ms infinite;}.uUegsFFJ_16{stroke-dasharray:29 31;stroke-dashoffset:30;animation:uUegsFFJ_draw_16 3600ms linear 0ms infinite,uUegsFFJ_fade 3600ms linear 0ms infinite;}.uUegsFFJ_17{stroke-dasharray:528 530;stroke-dashoffset:529;animation:uUegsFFJ_draw_17 3600ms linear 0ms infinite,uUegsFFJ_fade 3600ms linear 0ms infinite;}@keyframes uUegsFFJ_draw{100%{stroke-dashoffset:0;}}@keyframes uUegsFFJ_fade{0%{stroke-opacity:1;}88.88888888888889%{stroke-opacity:1;}100%{stroke-opacity:0;}}@keyframes uUegsFFJ_draw_0{2.7777777777777777%{stroke-dashoffset: 1745}86.11111111111111%{ stroke-dashoffset: 0;}100%{ stroke-dashoffset: 0;}}@keyframes uUegsFFJ_draw_1{2.7777777777777777%{stroke-dashoffset: 1762}86.11111111111111%{ stroke-dashoffset: 0;}100%{ stroke-dashoffset: 0;}}@keyframes uUegsFFJ_draw_2{2.7777777777777777%{stroke-dashoffset: 1762}86.11111111111111%{ stroke-dashoffset: 0;}100%{ stroke-dashoffset: 0;}}@keyframes uUegsFFJ_draw_3{2.7777777777777777%{stroke-dashoffset: 1762}86.11111111111111%{ stroke-dashoffset: 0;}100%{ stroke-dashoffset: 0;}}@keyframes uUegsFFJ_draw_4{2.7777777777777777%{stroke-dashoffset: 435}86.11111111111111%{ stroke-dashoffset: 0;}100%{ stroke-dashoffset: 0;}}@keyframes uUegsFFJ_draw_5{2.7777777777777777%{stroke-dashoffset: 435}86.11111111111111%{ stroke-dashoffset: 0;}100%{ stroke-dashoffset: 0;}}@keyframes uUegsFFJ_draw_6{2.7777777777777777%{stroke-dashoffset: 435}86.11111111111111%{ stroke-dashoffset: 0;}100%{ stroke-dashoffset: 0;}}@keyframes uUegsFFJ_draw_7{2.7777777777777777%{stroke-dashoffset: 435}86.11111111111111%{ stroke-dashoffset: 0;}100%{ stroke-dashoffset: 0;}}@keyframes uUegsFFJ_draw_8{2.7777777777777777%{stroke-dashoffset: 435}86.11111111111111%{ stroke-dashoffset: 0;}100%{ stroke-dashoffset: 0;}}@keyframes uUegsFFJ_draw_9{2.7777777777777777%{stroke-dashoffset: 435}86.11111111111111%{ stroke-dashoffset: 0;}100%{ stroke-dashoffset: 0;}}@keyframes uUegsFFJ_draw_10{2.7777777777777777%{stroke-dashoffset: 455}86.11111111111111%{ stroke-dashoffset: 0;}100%{ stroke-dashoffset: 0;}}@keyframes uUegsFFJ_draw_11{2.7777777777777777%{stroke-dashoffset: 292}86.11111111111111%{ stroke-dashoffset: 0;}100%{ stroke-dashoffset: 0;}}@keyframes uUegsFFJ_draw_12{2.7777777777777777%{stroke-dashoffset: 292}86.11111111111111%{ stroke-dashoffset: 0;}100%{ stroke-dashoffset: 0;}}@keyframes uUegsFFJ_draw_13{2.7777777777777777%{stroke-dashoffset: 598}86.11111111111111%{ stroke-dashoffset: 0;}100%{ stroke-dashoffset: 0;}}@keyframes uUegsFFJ_draw_14{2.7777777777777777%{stroke-dashoffset: 30}86.11111111111111%{ stroke-dashoffset: 0;}100%{ stroke-dashoffset: 0;}}@keyframes uUegsFFJ_draw_15{2.7777777777777777%{stroke-dashoffset: 30}86.11111111111111%{ stroke-dashoffset: 0;}100%{ stroke-dashoffset: 0;}}@keyframes uUegsFFJ_draw_16{2.7777777777777777%{stroke-dashoffset: 30}86.11111111111111%{ stroke-dashoffset: 0;}100%{ stroke-dashoffset: 0;}}@keyframes uUegsFFJ_draw_17{2.7777777777777777%{stroke-dashoffset: 529}86.11111111111111%{ stroke-dashoffset: 0;}100%{ stroke-dashoffset: 0;}}</style></svg>
