<svg width="636" height="623" viewBox="0 0 636 623" fill="none" xmlns="http://www.w3.org/2000/svg" style="">
<path width="325.754" height="559.785" fill="#FCF093" d="M 246.578,0.978516 L 540.332,0.978516 A 16,16,0,0,1,556.332,16.978516 L 556.332,544.763516 A 16,16,0,0,1,540.332,560.763516 L 246.578,560.763516 A 16,16,0,0,1,230.578,544.763516 L 230.578,16.978516 A 16,16,0,0,1,246.578,0.978516" class="vywiModi_0"></path>
<g style="mix-blend-mode:darken">
<path width="330.754" height="564.785" fill="#93D6FC" d="M 320.747,54.7583 L 615.501,54.7583 A 18,18,0,0,1,633.501,72.75829999999999 L 633.501,601.5432999999999 A 18,18,0,0,1,615.501,619.5432999999999 L 320.747,619.5432999999999 A 18,18,0,0,1,302.747,601.5432999999999 L 302.747,72.75829999999999 A 18,18,0,0,1,320.747,54.7583" class="vywiModi_1"></path>
<path width="330.754" height="564.785" stroke="#FFFDFD" stroke-width="5" d="M 320.747,54.7583 L 615.501,54.7583 A 18,18,0,0,1,633.501,72.75829999999999 L 633.501,601.5432999999999 A 18,18,0,0,1,615.501,619.5432999999999 L 320.747,619.5432999999999 A 18,18,0,0,1,302.747,601.5432999999999 L 302.747,72.75829999999999 A 18,18,0,0,1,320.747,54.7583" class="vywiModi_2"></path>
</g>
<path width="330.754" height="564.785" stroke="white" stroke-width="5" d="M 286.944,38.1067 L 581.6980000000001,38.1067 A 18,18,0,0,1,599.6980000000001,56.1067 L 599.6980000000001,584.8917 A 18,18,0,0,1,581.6980000000001,602.8917 L 286.944,602.8917 A 18,18,0,0,1,268.944,584.8917 L 268.944,56.1067 A 18,18,0,0,1,286.944,38.1067" class="vywiModi_3"></path>
<path width="208.703" height="12.9631" fill="white" d="M 333.938,97.2754 L 530.641,97.2754 A 6,6,0,0,1,536.641,103.2754 L 536.641,104.2385 A 6,6,0,0,1,530.641,110.2385 L 333.938,110.2385 A 6,6,0,0,1,327.938,104.2385 L 327.938,103.2754 A 6,6,0,0,1,333.938,97.2754" class="vywiModi_4"></path>
<path width="208.703" height="12.9631" fill="white" d="M 333.938,126.142 L 530.641,126.142 A 6,6,0,0,1,536.641,132.142 L 536.641,133.1051 A 6,6,0,0,1,530.641,139.1051 L 333.938,139.1051 A 6,6,0,0,1,327.938,133.1051 L 327.938,132.142 A 6,6,0,0,1,333.938,126.142" class="vywiModi_5"></path>
<path width="208.703" height="12.9631" fill="white" d="M 333.883,194.688 L 530.586,194.688 A 6,6,0,0,1,536.586,200.688 L 536.586,201.65109999999999 A 6,6,0,0,1,530.586,207.65109999999999 L 333.883,207.65109999999999 A 6,6,0,0,1,327.883,201.65109999999999 L 327.883,200.688 A 6,6,0,0,1,333.883,194.688" class="vywiModi_6"></path>
<path width="208.703" height="12.9631" fill="white" d="M 335.97,396.588 L 532.673,396.588 A 6,6,0,0,1,538.673,402.588 L 538.673,403.5511 A 6,6,0,0,1,532.673,409.5511 L 335.97,409.5511 A 6,6,0,0,1,329.97,403.5511 L 329.97,402.588 A 6,6,0,0,1,335.97,396.588" class="vywiModi_7"></path>
<path width="208.703" height="12.9631" fill="white" d="M 333.883,220.639 L 530.586,220.639 A 6,6,0,0,1,536.586,226.639 L 536.586,227.6021 A 6,6,0,0,1,530.586,233.6021 L 333.883,233.6021 A 6,6,0,0,1,327.883,227.6021 L 327.883,226.639 A 6,6,0,0,1,333.883,220.639" class="vywiModi_8"></path>
<path width="208.703" height="12.9631" fill="white" d="M 333.883,425.455 L 530.586,425.455 A 6,6,0,0,1,536.586,431.455 L 536.586,432.4181 A 6,6,0,0,1,530.586,438.4181 L 333.883,438.4181 A 6,6,0,0,1,327.883,432.4181 L 327.883,431.455 A 6,6,0,0,1,333.883,425.455" class="vywiModi_9"></path>
<path width="202.703" height="42.2795" stroke="white" stroke-width="6" d="M 351.883,497.215 L 512.586,497.215 A 21,21,0,0,1,533.586,518.2149999999999 L 533.586,518.4945 A 21,21,0,0,1,512.586,539.4945 L 351.883,539.4945 A 21,21,0,0,1,330.883,518.4945 L 330.883,518.2149999999999 A 21,21,0,0,1,351.883,497.215" class="vywiModi_10"></path>
<path width="137.526" height="12.9631" fill="white" d="M 333.938,155.01 L 459.464,155.01 A 6,6,0,0,1,465.464,161.01 L 465.464,161.9731 A 6,6,0,0,1,459.464,167.9731 L 333.938,167.9731 A 6,6,0,0,1,327.938,161.9731 L 327.938,161.01 A 6,6,0,0,1,333.938,155.01" class="vywiModi_11"></path>
<path width="137.526" height="12.9631" fill="white" d="M 333.938,454.536 L 459.464,454.536 A 6,6,0,0,1,465.464,460.536 L 465.464,461.4991 A 6,6,0,0,1,459.464,467.4991 L 333.938,467.4991 A 6,6,0,0,1,327.938,461.4991 L 327.938,460.536 A 6,6,0,0,1,333.938,454.536" class="vywiModi_12"></path>
<path width="202.648" height="103.554" stroke="white" stroke-width="6" d="M 339.883,263.318 L 524.531,263.318 A 9,9,0,0,1,533.531,272.318 L 533.531,357.87199999999996 A 9,9,0,0,1,524.531,366.87199999999996 L 339.883,366.87199999999996 A 9,9,0,0,1,330.883,357.87199999999996 L 330.883,272.318 A 9,9,0,0,1,339.883,263.318" class="vywiModi_13"></path>
<path d="M23.3513 290.586L43.7773 270.16" stroke="#D8D8D8" stroke-width="7" stroke-linecap="round" class="vywiModi_14"></path>
<path d="M32.2549 299.49L52.6809 279.064" stroke="#D8D8D8" stroke-width="7" stroke-linecap="round" class="vywiModi_15"></path>
<path d="M144.86 412.095L165.286 391.669" stroke="#D8D8D8" stroke-width="7" stroke-linecap="round" class="vywiModi_16"></path>
<path d="M185.661 374.966L185.661 418.21L145.121 415.507L22.1482 292.534C14.0402 286.228 2.14845 269.291 19.4457 251.994C36.7429 234.697 55.4815 244.787 62.6887 251.994L185.661 374.966Z" stroke="#D8D8D8" stroke-width="7" class="vywiModi_17"></path>
<style data-made-with="vivus-instant">.vywiModi_0{stroke-dasharray:1744 1746;stroke-dashoffset:1745;animation:vywiModi_draw_0 4600ms linear 0ms infinite,vywiModi_fade 4600ms linear 0ms infinite;}.vywiModi_1{stroke-dasharray:1761 1763;stroke-dashoffset:1762;animation:vywiModi_draw_1 4600ms linear 0ms infinite,vywiModi_fade 4600ms linear 0ms infinite;}.vywiModi_2{stroke-dasharray:1761 1763;stroke-dashoffset:1762;animation:vywiModi_draw_2 4600ms linear 0ms infinite,vywiModi_fade 4600ms linear 0ms infinite;}.vywiModi_3{stroke-dasharray:1761 1763;stroke-dashoffset:1762;animation:vywiModi_draw_3 4600ms linear 0ms infinite,vywiModi_fade 4600ms linear 0ms infinite;}.vywiModi_4{stroke-dasharray:434 436;stroke-dashoffset:435;animation:vywiModi_draw_4 4600ms linear 0ms infinite,vywiModi_fade 4600ms linear 0ms infinite;}.vywiModi_5{stroke-dasharray:434 436;stroke-dashoffset:435;animation:vywiModi_draw_5 4600ms linear 0ms infinite,vywiModi_fade 4600ms linear 0ms infinite;}.vywiModi_6{stroke-dasharray:434 436;stroke-dashoffset:435;animation:vywiModi_draw_6 4600ms linear 0ms infinite,vywiModi_fade 4600ms linear 0ms infinite;}.vywiModi_7{stroke-dasharray:434 436;stroke-dashoffset:435;animation:vywiModi_draw_7 4600ms linear 0ms infinite,vywiModi_fade 4600ms linear 0ms infinite;}.vywiModi_8{stroke-dasharray:434 436;stroke-dashoffset:435;animation:vywiModi_draw_8 4600ms linear 0ms infinite,vywiModi_fade 4600ms linear 0ms infinite;}.vywiModi_9{stroke-dasharray:434 436;stroke-dashoffset:435;animation:vywiModi_draw_9 4600ms linear 0ms infinite,vywiModi_fade 4600ms linear 0ms infinite;}.vywiModi_10{stroke-dasharray:454 456;stroke-dashoffset:455;animation:vywiModi_draw_10 4600ms linear 0ms infinite,vywiModi_fade 4600ms linear 0ms infinite;}.vywiModi_11{stroke-dasharray:291 293;stroke-dashoffset:292;animation:vywiModi_draw_11 4600ms linear 0ms infinite,vywiModi_fade 4600ms linear 0ms infinite;}.vywiModi_12{stroke-dasharray:291 293;stroke-dashoffset:292;animation:vywiModi_draw_12 4600ms linear 0ms infinite,vywiModi_fade 4600ms linear 0ms infinite;}.vywiModi_13{stroke-dasharray:597 599;stroke-dashoffset:598;animation:vywiModi_draw_13 4600ms linear 0ms infinite,vywiModi_fade 4600ms linear 0ms infinite;}.vywiModi_14{stroke-dasharray:29 31;stroke-dashoffset:30;animation:vywiModi_draw_14 4600ms linear 0ms infinite,vywiModi_fade 4600ms linear 0ms infinite;}.vywiModi_15{stroke-dasharray:29 31;stroke-dashoffset:30;animation:vywiModi_draw_15 4600ms linear 0ms infinite,vywiModi_fade 4600ms linear 0ms infinite;}.vywiModi_16{stroke-dasharray:29 31;stroke-dashoffset:30;animation:vywiModi_draw_16 4600ms linear 0ms infinite,vywiModi_fade 4600ms linear 0ms infinite;}.vywiModi_17{stroke-dasharray:528 530;stroke-dashoffset:529;animation:vywiModi_draw_17 4600ms linear 0ms infinite,vywiModi_fade 4600ms linear 0ms infinite;}@keyframes vywiModi_draw{100%{stroke-dashoffset:0;}}@keyframes vywiModi_fade{0%{stroke-opacity:1;}91.30434782608695%{stroke-opacity:1;}100%{stroke-opacity:0;}}@keyframes vywiModi_draw_0{17.391304347826086%{stroke-dashoffset: 1745}52.17391304347826%{ stroke-dashoffset: 0;}100%{ stroke-dashoffset: 0;}}@keyframes vywiModi_draw_1{18.414322250639383%{stroke-dashoffset: 1762}53.19693094629155%{ stroke-dashoffset: 0;}100%{ stroke-dashoffset: 0;}}@keyframes vywiModi_draw_2{19.437340153452688%{stroke-dashoffset: 1762}54.21994884910486%{ stroke-dashoffset: 0;}100%{ stroke-dashoffset: 0;}}@keyframes vywiModi_draw_3{20.46035805626599%{stroke-dashoffset: 1762}55.24296675191815%{ stroke-dashoffset: 0;}100%{ stroke-dashoffset: 0;}}@keyframes vywiModi_draw_4{21.483375959079286%{stroke-dashoffset: 435}56.26598465473145%{ stroke-dashoffset: 0;}100%{ stroke-dashoffset: 0;}}@keyframes vywiModi_draw_5{22.506393861892583%{stroke-dashoffset: 435}57.289002557544755%{ stroke-dashoffset: 0;}100%{ stroke-dashoffset: 0;}}@keyframes vywiModi_draw_6{23.529411764705884%{stroke-dashoffset: 435}58.31202046035806%{ stroke-dashoffset: 0;}100%{ stroke-dashoffset: 0;}}@keyframes vywiModi_draw_7{24.55242966751918%{stroke-dashoffset: 435}59.33503836317136%{ stroke-dashoffset: 0;}100%{ stroke-dashoffset: 0;}}@keyframes vywiModi_draw_8{25.575447570332482%{stroke-dashoffset: 435}60.35805626598465%{ stroke-dashoffset: 0;}100%{ stroke-dashoffset: 0;}}@keyframes vywiModi_draw_9{26.598465473145776%{stroke-dashoffset: 435}61.38107416879796%{ stroke-dashoffset: 0;}100%{ stroke-dashoffset: 0;}}@keyframes vywiModi_draw_10{27.621483375959077%{stroke-dashoffset: 455}62.40409207161125%{ stroke-dashoffset: 0;}100%{ stroke-dashoffset: 0;}}@keyframes vywiModi_draw_11{28.64450127877238%{stroke-dashoffset: 292}63.42710997442455%{ stroke-dashoffset: 0;}100%{ stroke-dashoffset: 0;}}@keyframes vywiModi_draw_12{29.66751918158568%{stroke-dashoffset: 292}64.45012787723786%{ stroke-dashoffset: 0;}100%{ stroke-dashoffset: 0;}}@keyframes vywiModi_draw_13{30.69053708439898%{stroke-dashoffset: 598}65.47314578005115%{ stroke-dashoffset: 0;}100%{ stroke-dashoffset: 0;}}@keyframes vywiModi_draw_14{31.713554987212277%{stroke-dashoffset: 30}66.49616368286445%{ stroke-dashoffset: 0;}100%{ stroke-dashoffset: 0;}}@keyframes vywiModi_draw_15{32.73657289002558%{stroke-dashoffset: 30}67.51918158567776%{ stroke-dashoffset: 0;}100%{ stroke-dashoffset: 0;}}@keyframes vywiModi_draw_16{33.75959079283888%{stroke-dashoffset: 30}68.54219948849105%{ stroke-dashoffset: 0;}100%{ stroke-dashoffset: 0;}}@keyframes vywiModi_draw_17{34.78260869565217%{stroke-dashoffset: 529}69.56521739130434%{ stroke-dashoffset: 0;}100%{ stroke-dashoffset: 0;}}</style></svg>
