<svg width="170" height="31" viewBox="0 0 170 31" fill="none" xmlns="http://www.w3.org/2000/svg">
<path fill-rule="evenodd" clip-rule="evenodd" d="M121.164 0.0963094C121.109 0.197885 118.755 0.338556 115.934 0.409074C113.112 0.479227 109.818 0.630494 108.614 0.744493C105.391 1.04959 104.63 1.05908 104.399 0.797107C104.285 0.667031 104.144 0.647668 104.086 0.753993C103.95 1.00282 101.852 1.23958 97.9039 1.4515C96.1732 1.54467 94.6873 1.69996 94.6017 1.79715C94.516 1.89435 93.6479 2.08032 92.6726 2.2104C91.6973 2.34047 90.8711 2.58528 90.8362 2.75445C90.8016 2.92362 90.5777 2.93422 90.3386 2.77783C89.9503 2.52426 89.4376 2.49759 88.3677 2.67626C88.1288 2.71608 88.0655 2.92581 88.1575 3.37267C88.2805 3.96824 88.2648 3.96715 87.9292 3.35623C87.6332 2.81766 87.3685 2.74093 86.4475 2.92581C85.8307 3.04968 84.9007 3.13116 84.3806 3.10668C83.7969 3.07927 83.4352 3.22031 83.4352 3.47498C83.4352 3.75157 83.222 3.79944 82.7883 3.62077C82.4324 3.47388 82.0518 3.37048 81.9424 3.39131C81.8329 3.41177 81.0715 3.46146 80.2505 3.50165C79.4294 3.54184 78.6757 3.65876 78.5757 3.7607C78.3554 3.98578 77.7463 4.09905 75.2744 4.37418C74.2344 4.49 73.1148 4.65077 72.7863 4.73079C71.3554 5.08082 69.6944 5.34134 68.3079 5.43305C67.4868 5.48749 66.3224 5.72243 65.7203 5.95481C64.6011 6.38706 62.1785 6.78971 60.9602 6.74586C60.5864 6.73234 60.2072 6.93403 60.1174 7.19382C59.9846 7.57783 59.9536 7.57637 59.951 7.18688C59.9482 6.73746 59.4815 6.75573 57.9576 7.26397C56.8131 7.64616 55.715 7.91252 54.7729 8.03711C54.1708 8.11713 53.1855 8.27278 52.5834 8.38349C51.9813 8.49457 50.9065 8.65607 50.1949 8.74266C49.4833 8.82926 48.9011 8.92279 48.9011 8.9502C48.9011 9.00391 48.5983 9.14787 47.8332 9.45844C47.5743 9.56367 46.6786 9.7544 45.8428 9.88265C44.2049 10.1337 43.5269 10.2776 43.5269 10.3741C43.5269 10.4077 42.9895 10.5111 42.3326 10.6039C40.4242 10.8739 39.6183 11.0508 38.4513 11.4549C37.8492 11.6635 36.8639 11.9328 36.2618 12.0534C35.6597 12.1743 34.8148 12.3435 34.384 12.4297C33.9535 12.5159 33.5142 12.7461 33.4081 12.9409C33.2835 13.1696 33.0849 13.167 32.8476 12.9339C32.6074 12.6979 32.3538 12.6968 32.1163 12.9299C31.9163 13.1265 31.2668 13.3227 30.6733 13.3658C30.0795 13.4089 29.3699 13.5986 29.0962 13.7867C28.8225 13.9753 28.2851 14.1737 27.902 14.2281C26.2634 14.4598 24.8005 14.8946 24.5857 15.2135C24.4408 15.4291 24.3098 15.4244 24.2348 15.2008C24.157 14.9702 23.8879 14.9695 23.4707 15.1986C23.1162 15.3933 22.3439 15.6323 21.7541 15.7295C21.1641 15.8263 20.6026 15.9955 20.5059 16.1054C20.4094 16.2151 19.9514 16.3751 19.4884 16.4613C18.3083 16.6813 17.5774 16.9045 16.656 17.3265C16.2181 17.5271 15.7032 17.6031 15.5115 17.4953C15.3198 17.3876 15.163 17.4336 15.1628 17.598C15.1624 17.7621 14.9036 17.913 14.5873 17.9334C14.2713 17.9535 13.8459 18.096 13.6425 18.2499C13.4388 18.4037 12.8073 18.5648 12.2388 18.6076C11.6705 18.6503 11.0842 18.8699 10.9359 19.0957C10.7876 19.3219 10.4914 19.5152 10.2774 19.5261C9.03401 19.5882 7.96315 19.8678 7.74719 20.1867C7.61124 20.3881 7.20878 20.6668 6.85309 20.8064C6.4972 20.946 6.2058 21.1707 6.2054 21.3052C6.2048 21.44 5.9138 21.5883 5.55851 21.6347C4.46516 21.7776 4.11365 21.9935 4.17714 22.4828C4.22153 22.8248 4.16739 22.8482 3.9781 22.5683C3.61484 22.0312 2.53503 22.4028 2.05036 23.2318C1.82723 23.6133 1.4998 23.9253 1.32265 23.9253C0.886947 23.9253 -0.228893 25.9999 0.0418064 26.3068C0.156854 26.4377 0.196862 26.8578 0.130581 27.2411C-0.00257975 28.011 0.212188 28.9358 0.409042 28.4403C0.477514 28.2682 0.735076 27.9204 0.981293 27.6675C1.3762 27.262 1.42914 27.2894 1.42914 27.8988C1.42914 28.2872 1.60709 28.6752 1.83539 28.7849C2.17755 28.9493 2.22014 28.855 2.10509 28.1897C2.02986 27.7548 1.82464 27.1808 1.64889 26.9141C1.36943 26.4892 1.39172 26.4541 1.82723 26.6335C2.10091 26.746 2.38913 26.8407 2.46795 26.8432C2.54657 26.8461 2.55931 27.095 2.49641 27.3964C2.43332 27.6978 2.48089 27.9445 2.60211 27.9445C2.72333 27.9445 2.82245 27.7852 2.82245 27.5904C2.82245 27.396 2.96576 27.3376 3.14112 27.4611C3.31628 27.5846 3.53901 27.456 3.63574 27.1757C3.77905 26.7603 3.81209 26.7771 3.81468 27.266C3.81627 27.5963 3.97451 27.9876 4.16599 28.1356C4.68868 28.5397 6.18709 28.4286 6.49282 27.9627C6.69524 27.6544 6.83975 27.6978 7.08079 28.1407C7.33875 28.6142 7.40046 28.6277 7.40046 28.2097C7.40046 27.9251 7.57163 27.4077 7.78103 27.0603C8.15105 26.4453 8.15682 26.4654 7.9944 27.787C7.8692 28.8075 7.89966 29.2781 8.11662 29.6767C8.50455 30.3889 8.99201 29.9921 8.99579 28.9606C8.99798 28.3899 9.05013 28.2751 9.161 28.5963C9.25535 28.8689 9.47091 28.9613 9.67573 28.817C9.86959 28.6804 10.0875 28.7447 10.16 28.9599C10.3093 29.4038 11.7794 28.7129 11.7794 28.1988C11.7794 28.0351 11.6992 27.9923 11.6013 28.1034C11.5031 28.2149 11.371 28.0563 11.3071 27.7512C11.2127 27.2996 11.2641 27.2685 11.585 27.5835C11.8013 27.7961 11.9785 27.8568 11.9785 27.7179C11.9785 27.5795 12.1576 27.7636 12.3766 28.1272C12.7346 28.722 12.7746 28.7275 12.7746 28.1838C12.7746 27.8513 12.909 27.5791 13.0732 27.5791C13.2374 27.5791 13.5664 27.2218 13.8045 26.7848C14.0851 26.2696 14.1948 26.1928 14.1168 26.5666C13.9452 27.3865 14.164 27.6387 14.5043 27.0135C14.8829 26.3189 15.1632 26.339 15.1632 27.0614C15.1632 27.3796 15.2752 27.567 15.412 27.4779C15.5489 27.3887 15.6373 26.9422 15.6086 26.4859C15.5626 25.7507 15.5945 25.7135 15.8873 26.1596C16.1861 26.6145 16.2089 26.5495 16.1237 25.4858C16.0485 24.5435 16.082 24.3879 16.2911 24.7068C16.4486 24.9465 16.5045 25.4573 16.4315 25.9912C16.3186 26.8158 16.3596 26.871 17.0246 26.7888C17.7432 26.7 18.0246 26.1698 17.8349 25.2626C17.7786 24.9933 17.863 24.5746 18.0224 24.3316C18.2627 23.9659 18.3347 24.0802 18.4454 25.0039C18.5469 25.8538 18.6876 26.1176 19.0389 26.1176C19.5322 26.1176 19.8256 25.3225 19.5316 24.7828C19.4263 24.5896 19.5228 24.2604 19.767 23.9805C19.9946 23.7196 20.1215 23.6827 20.0489 23.8983C19.9715 24.1281 20.0819 24.2907 20.3148 24.2907C20.5338 24.2907 20.7682 24.1263 20.8359 23.9253C21.0855 23.1836 21.3377 23.5851 21.2097 24.5209C21.1102 25.2483 21.1456 25.4413 21.3552 25.3148C21.5075 25.2231 21.6598 24.7204 21.6936 24.1979C21.7557 23.2413 22.2434 22.1854 22.449 22.5628C22.5099 22.6742 22.4078 23.1913 22.2223 23.7108C22.0194 24.2794 21.9732 24.6561 22.1068 24.6561C22.2288 24.6561 22.3287 24.5267 22.3287 24.3685C22.3287 24.2103 22.604 24.0422 22.9402 23.9951C23.3154 23.9428 23.5033 24.0539 23.4261 24.283C23.2336 24.8548 23.6416 24.7262 23.9113 24.1295C24.0421 23.8402 24.268 23.6871 24.4131 23.7894C24.5582 23.8913 24.7286 23.8215 24.7919 23.6337C24.855 23.4463 25.1223 23.3681 25.3859 23.4605C25.6494 23.553 25.9255 23.4488 25.9995 23.2289C26.1723 22.7155 27.5039 22.7042 27.5039 23.2161C27.5039 23.4287 27.603 23.4905 27.7242 23.3531C27.8817 23.1744 27.8755 23.025 27.7029 22.8292C27.3693 22.4506 27.7489 22.0516 28.7672 21.71C29.3423 21.5167 29.6408 21.5843 29.8416 21.953C30.2304 22.6666 30.5584 22.5909 30.4006 21.8244C30.2799 21.2379 30.2957 21.2335 30.5909 21.7692C30.9655 22.4488 31.6834 22.2961 32.223 21.4221C32.7322 20.5974 33.1563 20.4611 33.0082 21.17C32.9436 21.4798 32.9774 21.733 33.0833 21.733C33.1894 21.733 33.2762 21.5503 33.2762 21.3271C33.2762 21.0607 33.5162 21.0037 33.9728 21.1608C34.5777 21.3691 34.6695 21.3059 34.6695 20.68C34.6695 19.9218 35.64 18.2634 35.8444 18.6722C35.9097 18.803 35.8514 18.9835 35.7144 19.0731C35.5777 19.1629 35.4656 19.536 35.4656 19.9025C35.4656 20.805 36.1533 20.4677 36.4023 19.4432L36.5882 18.6784L36.9931 19.4216C37.3577 20.091 37.4505 20.1144 37.9246 19.6584C38.385 19.2159 38.4513 19.2225 38.4513 19.7117C38.4513 20.0278 38.6245 20.2715 38.8494 20.2715C39.0683 20.2715 39.2475 20.1071 39.2475 19.9061C39.2475 19.7052 39.4714 19.5407 39.7451 19.5407C40.0188 19.5407 40.2427 19.3588 40.2427 19.1363C40.2427 18.9137 40.3659 18.8187 40.5166 18.9247C40.6816 19.0409 40.7803 18.8904 40.7654 18.5454C40.7502 18.1991 40.9176 17.9462 41.1893 17.9046C41.6022 17.8414 41.6161 17.898 41.3629 18.6068C41.1089 19.3186 41.1243 19.3752 41.5594 19.3405C41.8189 19.3193 42.0908 19.1929 42.1637 19.0595C42.2365 18.9258 42.4063 18.9843 42.5408 19.1892C42.8703 19.6913 43.878 18.8571 43.7399 18.1969C43.6177 17.6115 43.8627 17.5629 44.1625 18.1132C44.3181 18.3989 44.4935 18.4008 44.7795 18.1198C45.0906 17.8143 45.204 17.8472 45.2922 18.2685C45.3543 18.5663 45.5705 18.81 45.7725 18.81C46.2912 18.81 47.291 16.8055 47.1378 16.0726C47.0609 15.7043 47.095 15.5745 47.2289 15.7265C47.3466 15.8603 47.3965 16.2954 47.3398 16.6941C47.2164 17.56 47.3732 18.4446 47.6499 18.4446C47.7594 18.4446 47.7974 18.198 47.7343 17.8965C47.6059 17.2823 48.1049 17.1223 48.304 17.7138C48.3716 17.9148 48.5784 18.0661 48.7635 18.0504C48.9708 18.0324 49.0046 17.9506 48.8513 17.8373C48.7146 17.7358 48.6089 17.2966 48.6165 16.8614C48.63 16.0948 48.636 16.0926 48.8016 16.8004C48.8957 17.2023 48.9789 17.3159 48.9867 17.0529C48.9942 16.7898 49.0902 16.6762 49.1997 16.8004C49.3091 16.9246 49.4015 16.811 49.4051 16.5479C49.4089 16.2585 49.5299 16.3575 49.7114 16.7986C49.969 17.4241 50.0384 17.45 50.2006 16.9813C50.3045 16.6809 50.3505 16.2377 50.3024 15.9969C50.2522 15.7444 50.3308 15.6403 50.4883 15.751C50.8131 15.9801 51.0378 16.914 50.8804 17.3813C50.7339 17.8169 51.0368 17.8026 51.6951 17.3433C52.0446 17.0993 52.1871 16.7876 52.1123 16.4299C52.0498 16.1314 52.0856 15.8869 52.1915 15.8869C52.2976 15.8869 52.3844 16.0411 52.3844 16.2297C52.3844 16.9805 53.2323 16.4156 53.4126 15.5446C53.5655 14.8069 53.6363 14.7349 53.7846 15.1686C53.8851 15.4631 53.9168 16.0042 53.8545 16.3707C53.7558 16.9531 53.8254 17.0076 54.4064 16.8004C54.7723 16.6699 55.2301 16.5658 55.4242 16.5684C55.618 16.5713 55.7247 16.4189 55.6612 16.23C55.5975 16.0415 55.6777 15.8869 55.8394 15.8869C56.0008 15.8869 56.1708 16.0923 56.2167 16.3437C56.282 16.6999 56.373 16.6904 56.6304 16.3006C56.8119 16.0258 57.1415 15.8877 57.3628 15.994C57.5844 16.1003 57.8927 15.9542 58.0479 15.6688C58.2213 15.3506 58.3774 15.2906 58.4524 15.5132C58.6186 16.0068 59.5256 15.8325 59.7858 15.2574C59.9458 14.9033 59.8931 14.7908 59.5672 14.7908C59.1815 14.7908 59.163 14.7075 59.3849 13.9687C59.5985 13.258 59.6419 13.2332 59.7052 13.786C59.7452 14.1379 59.9444 14.4254 60.1475 14.4254C60.3505 14.4254 60.6351 14.6421 60.7798 14.907C60.9253 15.1734 61.578 15.428 62.2416 15.4773C63.2697 15.5537 63.5221 15.4379 64.0131 14.6633C64.5366 13.8375 65.271 13.6906 65.0107 14.4638C64.9502 14.6436 64.988 14.7908 65.0949 14.7908C65.2016 14.7908 65.3341 14.5851 65.3895 14.3341C65.4697 13.9687 65.493 13.9687 65.5055 14.3341C65.53 15.048 66.8588 14.9088 67.0845 14.1686C67.239 13.6621 67.3296 13.6307 67.5726 14.0012C67.8114 14.3651 67.8919 14.3615 67.9749 13.984C68.0471 13.6552 68.1283 13.6318 68.243 13.9073C68.3333 14.1247 68.7209 14.2891 69.104 14.2727C69.6928 14.2475 69.7919 14.124 69.7436 13.4765C69.7121 13.0552 69.8297 12.4922 70.0049 12.2251C70.2862 11.7969 70.3084 11.8495 70.1952 12.6774C70.1221 13.2113 70.1596 13.7199 70.2822 13.8591C70.4006 13.9932 70.4973 13.9234 70.4973 13.7038C70.4973 13.4714 70.7264 13.3735 71.0447 13.4696C71.3457 13.5602 71.5921 13.6618 71.5921 13.6947C71.5921 13.7275 71.85 13.832 72.1653 13.9263C72.6715 14.0776 72.7256 14.006 72.6271 13.3147C72.5234 12.5876 72.5407 12.5733 72.8656 13.113C73.3017 13.8372 73.682 13.8627 73.682 13.1681C73.682 12.8784 73.7867 12.5229 73.9149 12.3775C74.0716 12.1999 74.1062 12.3124 74.0206 12.7213C73.9271 13.1689 74.0033 13.3293 74.3098 13.3293C74.6404 13.3293 74.6793 13.2259 74.4989 12.8269C74.3164 12.4231 74.3703 12.3245 74.773 12.3245C75.0658 12.3245 75.2744 12.5335 75.2744 12.8269C75.2744 13.4999 75.6008 13.4681 75.7445 12.7812C75.8074 12.4798 75.9738 12.2463 76.1142 12.262C76.3138 12.2847 76.3152 12.3307 76.1203 12.475C75.9836 12.5766 75.8715 12.8159 75.8715 13.0074C75.8715 13.2127 76.0341 13.1952 76.2696 12.9639C76.4886 12.7487 76.6677 12.707 76.6677 12.8715C76.6677 13.5755 77.7642 13.2741 78.3902 12.3979C79.0294 11.5027 79.0562 11.4954 79.0562 12.2145C79.0562 13.1575 79.7467 13.235 80.0355 12.3245C80.1482 11.9697 80.2411 11.8882 80.2445 12.1418C80.2479 12.4067 80.51 12.5985 80.8689 12.5985C81.2953 12.5985 81.4565 12.4505 81.3878 12.1224C81.2586 11.5046 82.6444 11.2926 82.8486 11.8992C82.9278 12.1341 83.0966 12.209 83.2236 12.0647C83.392 11.8736 83.3954 11.6719 83.2361 11.3197C83.1056 11.0307 83.0926 10.7519 83.2039 10.6255C83.3062 10.5093 83.4392 10.7603 83.4993 11.1827L83.6088 11.9507L84.1995 11.1787C84.891 10.2747 85.1127 10.2027 84.9605 10.9306C84.9002 11.2192 84.9579 11.5349 85.0884 11.6325C85.2192 11.7304 85.1515 11.8232 84.938 11.8389C84.7015 11.8564 84.6237 11.9953 84.7389 12.194C84.843 12.3734 85.2164 12.4378 85.5687 12.3369C86.0787 12.1908 86.2005 11.9938 86.1659 11.3712C86.1402 10.9094 86.2242 10.6262 86.3711 10.6803C86.508 10.7307 86.6213 10.5663 86.6229 10.3149C86.6251 10.0105 86.6904 10.0409 86.8189 10.4062C86.925 10.7077 87.0146 10.7899 87.018 10.5889C87.0214 10.388 87.0994 10.4417 87.1913 10.708C87.2835 10.9744 87.7286 11.2835 88.1806 11.3946C88.8757 11.566 89.0657 11.4629 89.4141 10.7278C89.7867 9.94074 89.8151 9.92869 89.7156 10.6021C89.6338 11.156 89.7073 11.3657 90.0038 11.4242C90.6286 11.547 91.0514 11.5382 91.6955 11.3895C92.0239 11.3135 92.5613 11.2203 92.8898 11.1827C93.4346 11.1198 93.4558 11.0705 93.134 10.6222C92.7998 10.157 92.8026 10.1201 93.1838 9.93709C93.4437 9.8125 93.5864 9.92174 93.5864 10.2462C93.5864 10.5352 93.7092 10.6624 93.8754 10.5451C94.0345 10.4333 94.2737 10.4654 94.4071 10.6167C94.5406 10.7683 95.0152 10.8604 95.4616 10.8217C95.9083 10.7829 96.6989 10.7146 97.219 10.67C97.8191 10.6185 98.1644 10.4219 98.1644 10.1322C98.1644 9.85378 98.4365 9.67548 98.8611 9.67548C99.2442 9.67548 99.5577 9.84976 99.5577 10.0624C99.5577 10.2751 99.6513 10.3434 99.7655 10.2137C99.8798 10.084 100.102 10.1739 100.259 10.4132C100.457 10.7143 100.715 10.7435 101.096 10.5074C101.399 10.32 101.993 10.2334 102.415 10.3149C102.957 10.4194 103.142 10.3397 103.042 10.0449C102.956 9.78802 103.02 9.67109 103.209 9.74234C103.378 9.80592 103.66 9.52933 103.836 9.12741C104.152 8.40688 104.155 8.40797 104.033 9.21875C103.945 9.80811 103.995 10.0409 104.21 10.0409C104.375 10.0409 104.569 9.86511 104.642 9.65063C104.714 9.43579 104.898 9.34846 105.052 9.45625C105.206 9.56513 105.33 9.43104 105.33 9.15517C105.33 8.21249 105.917 8.20994 106.252 9.15116C106.521 9.90421 106.717 10.0496 107.369 9.97911C107.814 9.93088 108.205 9.67694 108.264 9.39815C108.32 9.12558 108.501 8.99733 108.665 9.11279C108.829 9.22825 109.102 9.11425 109.271 8.85958C109.536 8.46168 109.563 8.51174 109.464 9.21875C109.4 9.67073 109.374 10.0409 109.406 10.0409C109.608 10.0409 110.595 8.91001 110.74 8.51211C110.851 8.20848 110.87 8.3919 110.792 9.00939L110.668 9.98788L112.409 9.84757C113.367 9.77011 114.239 9.54394 114.348 9.34444C114.457 9.14495 114.599 8.37034 114.666 7.62314C114.732 6.87594 114.898 6.1956 115.036 6.11156C115.228 5.99391 115.238 6.18866 115.079 6.95449C114.966 7.50183 114.917 8.0309 114.971 8.12992C115.025 8.22894 114.98 8.61734 114.87 8.99258C114.716 9.52165 114.74 9.67548 114.977 9.67548C115.145 9.67548 115.282 9.52129 115.282 9.33275C115.282 9.14421 115.439 9.00793 115.631 9.03022C115.822 9.05214 116.171 8.95385 116.406 8.81208C116.662 8.65753 116.94 8.74193 117.102 9.02364C117.539 9.7829 118.147 9.57463 118.401 8.57934L118.634 7.66589L118.65 8.68274C118.666 9.69448 118.671 9.6985 119.81 9.52311C120.44 9.42629 121.374 9.3386 121.887 9.32837C122.663 9.31302 122.842 9.17783 122.956 8.51978C123.077 7.81788 123.113 7.79779 123.278 8.33965C123.423 8.81501 123.55 8.86543 123.852 8.56874C124.118 8.30749 124.239 8.30676 124.239 8.56655C124.239 8.77445 124.374 8.94472 124.538 8.94472C124.702 8.94472 124.836 9.10293 124.836 9.29621C124.836 9.85634 128.552 9.5001 128.946 8.90197C129.22 8.48763 129.296 8.48361 129.369 8.88004C129.433 9.23337 129.597 9.13508 129.977 8.51466C130.263 8.04771 130.375 7.95746 130.226 8.31407C129.89 9.11754 130.092 9.58011 130.504 8.95202C130.751 8.57605 130.809 8.58336 130.814 8.99149C130.818 9.32837 130.915 9.26223 131.11 8.7887C131.27 8.4014 131.46 8.1935 131.532 8.32613C131.605 8.45913 131.79 8.28265 131.945 7.93408C132.151 7.46968 132.254 7.42291 132.33 7.75942C132.387 8.0119 132.538 8.12115 132.666 8.00167C132.793 7.88256 132.684 8.10471 132.423 8.4953C132.116 8.95349 132.026 9.29439 132.168 9.45552C132.289 9.5929 132.586 9.28781 132.828 8.77701C133.295 7.79085 133.908 7.5022 133.731 8.35207C133.627 8.84679 133.932 9.67548 134.217 9.67548C134.297 9.67548 134.402 9.30535 134.451 8.85337C134.537 8.04917 134.542 8.04771 134.677 8.78651C134.803 9.47233 134.957 9.53481 136.345 9.46356C137.186 9.42044 137.896 9.35066 137.923 9.30864C138.074 9.07662 139.735 9.14093 140.137 9.39414C140.438 9.58377 140.714 9.53152 140.899 9.25017C141.091 8.95751 141.233 8.93485 141.322 9.18295C141.569 9.87096 142.326 9.99226 142.594 9.38683C142.812 8.89356 142.798 8.84314 142.501 9.04739C142.285 9.1961 142.153 9.11316 142.153 8.82816C142.153 8.01081 142.902 8.2103 143.029 9.06164C143.129 9.72882 143.18 9.76938 143.344 9.3101C143.452 9.00866 143.542 8.94983 143.543 9.17966C143.548 9.80482 144.122 10.088 144.544 9.67329C144.758 9.46319 144.962 9.44675 145.026 9.63456C145.157 10.0262 146.751 9.92247 147.125 9.49754C147.301 9.29804 147.342 9.33787 147.249 9.61665C147.157 9.88703 147.27 10.0303 147.566 10.02C148.007 10.0047 149.418 10.3036 149.418 10.4124C149.418 10.4417 149.844 10.5166 150.364 10.5794C150.884 10.6423 151.31 10.5878 151.31 10.4585C151.31 10.3295 151.713 10.2089 152.206 10.1914C152.864 10.1673 153.101 10.2992 153.101 10.6905C153.101 11.038 153.235 11.1575 153.489 11.0358C153.703 10.9331 153.92 11.0372 153.971 11.2671C154.022 11.4969 154.071 11.3855 154.08 11.0197C154.094 10.4146 154.124 10.4062 154.408 10.9284C154.703 11.4691 154.905 11.5477 156.386 11.7C156.715 11.734 157.177 11.8743 157.414 12.0121C157.65 12.1502 157.899 12.0979 157.967 11.8966C158.046 11.6639 158.265 11.6518 158.568 11.8634C158.9 12.0954 159.075 12.0636 159.142 11.7581C159.196 11.517 159.247 11.6072 159.255 11.9591C159.264 12.311 159.338 12.6047 159.42 12.6124C160.048 12.6705 161.224 13.1031 161.51 13.3815C161.794 13.6574 161.859 13.5657 161.861 12.8853C161.864 12.2123 161.902 12.1568 162.058 12.5985C162.216 13.0498 162.251 13.0552 162.254 12.6288C162.255 12.3442 162.313 12.2152 162.382 12.342C162.451 12.4688 162.675 12.4085 162.88 12.2076C163.308 11.7866 163.321 11.852 163.058 13.1228C162.906 13.8554 162.925 14.06 163.145 14.06C163.301 14.06 163.48 13.9029 163.545 13.7107C163.677 13.3183 164.275 13.6271 164.481 14.1941C164.555 14.3973 164.857 14.6235 165.152 14.6958C165.447 14.7685 165.817 15.0623 165.973 15.3491C166.202 15.7689 166.333 15.7839 166.645 15.4255C166.859 15.1807 167.034 14.8701 167.034 14.7353C167.034 14.398 167.443 14.554 167.979 15.0952C168.32 15.4393 168.427 15.4437 168.427 15.1123C168.427 14.8522 168.587 14.9439 168.826 15.3411C169.418 16.3243 169.551 15.7042 169.081 14.1474C168.764 13.0973 168.713 12.5715 168.857 11.8743C168.987 11.2503 168.976 10.9247 168.823 10.8312C168.7 10.7563 168.515 10.2853 168.412 9.78436C168.308 9.28379 168.051 8.79162 167.841 8.69078C167.631 8.58993 167.415 8.2969 167.361 8.03967C167.255 7.52814 163.601 5.39907 163.274 5.65776C163.231 5.69137 163.128 5.51307 163.043 5.26169C162.958 5.01067 162.053 4.51704 161.03 4.16518C160.008 3.81295 158.947 3.42894 158.674 3.31129C158.4 3.19364 157.684 3.00583 157.081 2.89439C156.479 2.78258 155.813 2.5977 155.601 2.48334C155.389 2.36861 154.717 2.22647 154.108 2.16728C153.499 2.10772 152.777 1.95098 152.503 1.81871C152.23 1.68644 151.244 1.52166 150.314 1.45224C149.383 1.38281 148.622 1.30243 148.622 1.27393C148.622 1.24543 148.241 1.15847 147.776 1.08101C147.258 0.994777 146.93 1.0927 146.93 1.33349C146.93 1.59985 146.841 1.59035 146.653 1.30389C146.5 1.07114 145.649 0.854474 144.762 0.822686C143.874 0.790532 143.148 0.672879 143.148 0.561073C143.148 0.449632 141.693 0.314442 139.914 0.260731C138.135 0.207385 136.545 0.156232 136.381 0.147097C136.217 0.137963 135.5 0.189115 134.788 0.260364C134.077 0.331613 133.271 0.287403 132.997 0.162078C132.723 0.0367525 132.208 0.0535593 131.853 0.198981C131.497 0.344767 131.206 0.327959 131.206 0.161346C131.206 -0.00526717 130.959 -0.0502083 130.658 0.0612326C129.887 0.346594 122.9 0.407248 122.005 0.136501C121.598 0.0130029 121.219 -0.00490091 121.164 0.0963094ZM138.766 7.56322C138.768 7.70754 138.641 7.73494 138.483 7.62423C138.326 7.51352 138.249 7.17591 138.312 6.87411C138.405 6.42798 138.458 6.41665 138.595 6.81309C138.688 7.08128 138.765 7.41853 138.766 7.56322ZM100.568 7.02647C100.577 7.17701 100.613 7.58916 100.65 7.94175C100.687 8.29434 100.646 8.50224 100.56 8.40395C100.322 8.13467 100.166 6.75244 100.373 6.75244C100.472 6.75244 100.56 6.87594 100.568 7.02647ZM123.642 6.91357C123.642 7.00236 123.552 7.17628 123.443 7.30051C123.334 7.42474 123.244 7.35203 123.244 7.13937C123.244 6.92672 123.334 6.75244 123.443 6.75244C123.552 6.75244 123.642 6.82478 123.642 6.91357ZM115.78 8.21396C115.847 8.41492 115.808 8.57934 115.692 8.57934C115.576 8.57934 115.481 8.41492 115.481 8.21396C115.481 8.013 115.521 7.84858 115.569 7.84858C115.617 7.84858 115.712 8.013 115.78 8.21396ZM98.3635 8.74047C98.3635 8.82926 98.2739 9.00318 98.1644 9.12741C98.055 9.25164 97.9654 9.17893 97.9654 8.96627C97.9654 8.75362 98.055 8.57934 98.1644 8.57934C98.2739 8.57934 98.3635 8.65168 98.3635 8.74047ZM99.5038 8.80003C99.4377 8.92133 99.2659 8.93449 99.1224 8.82889C98.9636 8.71234 99.0108 8.62574 99.2426 8.6082C99.4524 8.59249 99.5699 8.67872 99.5038 8.80003ZM100.254 8.94472C100.322 9.14568 100.232 9.3101 100.055 9.3101C99.8782 9.3101 99.7886 9.14568 99.8563 8.94472C99.924 8.74376 100.014 8.57934 100.055 8.57934C100.097 8.57934 100.187 8.74376 100.254 8.94472ZM102.344 8.90197C102.344 9.07954 102.143 9.31814 101.897 9.43213C101.464 9.632 101.462 9.62103 101.835 9.10914C102.286 8.49128 102.344 8.46717 102.344 8.90197ZM95.1788 9.10585C95.1788 9.19464 95.0892 9.36856 94.9797 9.49279C94.8703 9.61702 94.7807 9.54431 94.7807 9.33165C94.7807 9.119 94.8703 8.94472 94.9797 8.94472C95.0892 8.94472 95.1788 9.01706 95.1788 9.10585ZM85.9688 9.53079C85.9027 9.65209 85.731 9.66525 85.5874 9.55965C85.4286 9.4431 85.4758 9.3565 85.7077 9.33896C85.9175 9.32325 86.0349 9.40948 85.9688 9.53079ZM88.1491 10.8403C88.0857 11.1315 88.0385 11.0449 88.0289 10.6193C88.0204 10.2341 88.0673 10.0186 88.1334 10.1399C88.1995 10.2612 88.2067 10.5765 88.1491 10.8403ZM158.077 10.9543C158.077 11.8736 157.764 11.8327 157.722 10.9079C157.698 10.385 157.765 10.0957 157.879 10.225C157.988 10.3485 158.077 10.6766 158.077 10.9543ZM75.3739 11.137C75.4416 11.338 75.402 11.5024 75.2861 11.5024C75.1703 11.5024 75.0753 11.338 75.0753 11.137C75.0753 10.936 75.1148 10.7716 75.1631 10.7716C75.2115 10.7716 75.3062 10.936 75.3739 11.137ZM86.3528 11.3383C86.4137 11.6295 86.5435 11.8678 86.6412 11.8678C86.9274 11.8678 86.8454 11.2338 86.5305 11.012C86.3376 10.8761 86.2787 10.9843 86.3528 11.3383ZM164.032 11.3551C163.809 11.8469 163.821 11.9931 164.107 12.2865C164.584 12.7768 164.552 13.4594 164.074 12.9895C163.87 12.7885 163.631 12.7417 163.545 12.8853C163.458 13.0289 163.446 12.8455 163.519 12.4772C163.591 12.1093 163.65 11.5747 163.65 11.2897C163.65 11.0047 163.795 10.7716 163.973 10.7716C164.246 10.7716 164.255 10.8615 164.032 11.3551ZM64.662 12.3018C64.5985 12.593 64.5513 12.5064 64.5418 12.0808C64.5332 11.6957 64.5802 11.4801 64.6463 11.6014C64.7123 11.7227 64.7195 12.038 64.662 12.3018ZM160.266 11.6635C160.266 11.7523 160.177 11.9262 160.067 12.0504C159.958 12.1747 159.868 12.102 159.868 11.8893C159.868 11.6767 159.958 11.5024 160.067 11.5024C160.177 11.5024 160.266 11.5747 160.266 11.6635ZM160.863 11.8678C160.863 12.0687 160.774 12.2331 160.664 12.2331C160.555 12.2331 160.465 12.0687 160.465 11.8678C160.465 11.6668 160.555 11.5024 160.664 11.5024C160.774 11.5024 160.863 11.6668 160.863 11.8678ZM64.1279 12.5985C64.1279 13.0004 64.0467 13.3293 63.9476 13.3293C63.8483 13.3293 63.814 13.0004 63.8712 12.5985C63.9285 12.1966 64.0097 11.8678 64.0517 11.8678C64.0935 11.8678 64.1279 12.1966 64.1279 12.5985ZM65.3222 12.5985C65.3222 12.7995 65.2828 12.9639 65.2344 12.9639C65.1861 12.9639 65.0913 12.7995 65.0236 12.5985C64.956 12.3976 64.9956 12.2331 65.1114 12.2331C65.2273 12.2331 65.3222 12.3976 65.3222 12.5985ZM63.4677 13.398C63.4042 13.6892 63.357 13.6026 63.3475 13.1769C63.3389 12.7918 63.3859 12.5762 63.452 12.6975C63.5181 12.8188 63.5252 13.1342 63.4677 13.398ZM166.636 14.5471C166.636 14.8153 166.501 15.0345 166.337 15.0345C166.022 15.0345 165.949 14.7115 166.171 14.3037C166.391 13.9004 166.636 14.0286 166.636 14.5471ZM36.5522 19.9306C36.48 20.1447 36.4636 20.3987 36.5158 20.4944C36.5679 20.5901 36.6637 20.4147 36.7286 20.1045C36.8631 19.4607 36.7485 19.3475 36.5522 19.9306ZM16.991 24.7353C16.8483 24.9973 16.7555 25.0189 16.7555 24.7902C16.7555 24.5823 16.8152 24.3027 16.8883 24.169C16.9611 24.0349 17.0672 24.0101 17.1237 24.1142C17.1803 24.218 17.1206 24.4975 16.991 24.7353ZM5.80811 26.9865C5.80811 27.0621 5.65146 27.35 5.45978 27.6259C5.1441 28.08 5.13713 28.0672 5.38454 27.4878C5.64469 26.879 5.80811 26.6857 5.80811 26.9865ZM8.73903 28.6752C8.70598 29.4798 8.39568 29.6998 8.39568 28.919C8.39568 28.4831 8.57223 27.9445 8.71514 27.9445C8.7448 27.9445 8.75555 28.2733 8.73903 28.6752Z" fill="#FF3F81"/>
</svg>
