<svg width="133" height="77" viewBox="0 0 133 77" fill="none" xmlns="http://www.w3.org/2000/svg">
<path d="M6.5 76.2817V63.3994M13 69.8406H0H13Z" stroke="#8BD2BD" stroke-miterlimit="10"/>
<path d="M6.5 44.5713V31.689M13 38.1301H0H13Z" stroke="#8BD2BD" stroke-miterlimit="10"/>
<path d="M6.5 13.852V0.969727M13 7.41088H0H13Z" stroke="#8BD2BD" stroke-miterlimit="10"/>
<path d="M6.5 76.2817V63.3994M13 69.8406H0H13Z" stroke="#1D262D" stroke-width="2" stroke-miterlimit="10"/>
<path d="M6.5 44.5713V31.689M13 38.1301H0H13Z" stroke="#1D262D" stroke-width="2" stroke-miterlimit="10"/>
<path d="M6.5 13.852V0.969727M13 7.41088H0H13Z" stroke="#1D262D" stroke-width="2" stroke-miterlimit="10"/>
<path d="M36.5 76.2817V63.3994M43 69.8406H30H43Z" stroke="#8BD2BD" stroke-miterlimit="10"/>
<path d="M36.5 44.5713V31.689M43 38.1301H30H43Z" stroke="#8BD2BD" stroke-miterlimit="10"/>
<path d="M36.5 13.852V0.969727M43 7.41088H30H43Z" stroke="#8BD2BD" stroke-miterlimit="10"/>
<path d="M36.5 76.2817V63.3994M43 69.8406H30H43Z" stroke="#1D262D" stroke-width="2" stroke-miterlimit="10"/>
<path d="M36.5 44.5713V31.689M43 38.1301H30H43Z" stroke="#1D262D" stroke-width="2" stroke-miterlimit="10"/>
<path d="M36.5 13.852V0.969727M43 7.41088H30H43Z" stroke="#1D262D" stroke-width="2" stroke-miterlimit="10"/>
<path d="M66.5 44.5713V31.689M73 38.1301H60H73Z" stroke="#8BD2BD" stroke-miterlimit="10"/>
<path d="M66.5 13.852V0.969727M73 7.41088H60H73Z" stroke="#8BD2BD" stroke-miterlimit="10"/>
<path d="M66.5 44.5713V31.689M73 38.1301H60H73Z" stroke="#1D262D" stroke-width="2" stroke-miterlimit="10"/>
<path d="M66.5 13.852V0.969727M73 7.41088H60H73Z" stroke="#1D262D" stroke-width="2" stroke-miterlimit="10"/>
<path d="M96.5 44.5713V31.689M103 38.1301H90H103Z" stroke="#8BD2BD" stroke-miterlimit="10"/>
<path d="M96.5 13.852V0.969727M103 7.41088H90H103Z" stroke="#8BD2BD" stroke-miterlimit="10"/>
<path d="M96.5 44.5713V31.689M103 38.1301H90H103Z" stroke="#1D262D" stroke-width="2" stroke-miterlimit="10"/>
<path d="M96.5 13.852V0.969727M103 7.41088H90H103Z" stroke="#1D262D" stroke-width="2" stroke-miterlimit="10"/>
<path d="M126.5 44.5713V31.689M133 38.1301H120H133Z" stroke="#8BD2BD" stroke-miterlimit="10"/>
<path d="M126.5 13.852V0.969727M133 7.41088H120H133Z" stroke="#8BD2BD" stroke-miterlimit="10"/>
<path d="M126.5 44.5713V31.689M133 38.1301H120H133Z" stroke="#1D262D" stroke-width="2" stroke-miterlimit="10"/>
<path d="M126.5 13.852V0.969727M133 7.41088H120H133Z" stroke="#1D262D" stroke-width="2" stroke-miterlimit="10"/>
</svg>
